Patient4_TMGait_0pt7_01_left_50_GRF.mot
version=1
nRows=71
nColumns=19
inDegrees=no
endheader
time	F1x	F1y	F1z	M1x	M1y	M1z	F2x	F2y	F2z	M2x	M2y	M2z	EC1x	EC1y	EC1z	EC2x	EC2y	EC2z
58.12	2.1248	-8.9513	2.785	0.89791	-6.3612	-24.2385	-15.5195	704.4179	-63.0364	238.9685	86.9093	821.9944	-0.0592	0.0182	-0.0073	-0.0462	0.0165	0.9585
58.1312	1.4351	-5.0323	1.9591	0.24542	-4.4354	-15.0829	-17.8196	701.9753	-64.743	239.8551	86.9617	816.0182	-0.0592	0.0182	-0.0073	-0.0462	0.0165	0.9585
58.1424	0.85006	-1.7148	1.2421	-0.31348	-2.7604	-7.3765	-19.0703	701.4943	-65.9279	241.2066	86.3913	811.4542	-0.0592	0.0182	-0.0073	-0.0462	0.0165	0.9585
58.1536	0.36052	0.84885	0.67845	-0.75117	-1.4615	-1.4634	-19.2177	703.5362	-66.5133	243.1663	85.2194	809.0328	-0.0592	0.0182	-0.0073	-0.0462	0.0165	0.9585
58.1649	0.034887	2.6618	0.2701	-1.0684	-0.53135	2.6598	-18.359	708.1565	-66.6067	245.7819	83.6046	808.8984	-0.0592	0.0182	-0.0073	-0.0462	0.0165	0.9585
58.1761	-0.21088	3.838	0.010588	-1.2823	0.049642	5.2946	-16.6838	715.0776	-66.3377	249.0202	81.6989	810.8201	-0.0592	0.0182	-0.0073	-0.0462	0.0165	0.9585
58.1873	-0.34876	4.501	-0.13157	-1.4089	0.3623	6.7433	-14.3316	723.7817	-65.8251	252.7772	79.6041	814.2556	-0.0592	0.0182	-0.0073	-0.0462	0.0165	0.9585
58.1985	-0.454	4.7861	-0.18026	-1.4625	0.4574	7.3672	-11.4656	733.7566	-65.1285	256.9411	77.3502	818.6882	-0.0592	0.0182	-0.0073	-0.0462	0.0165	0.9585
58.2097	-0.5294	4.7456	-0.15898	-1.4401	0.39707	7.3414	-8.1834	744.5688	-64.198	261.4103	74.8421	823.672	-0.0592	0.0182	-0.0073	-0.0462	0.0165	0.9585
58.2209	-0.62633	4.4242	-0.079349	-1.3363	0.21684	6.8457	-4.6457	755.8394	-63.0094	266.0685	72.0335	828.8817	-0.0592	0.0182	-0.0073	-0.0462	0.0165	0.9585
58.2321	-0.74174	3.7708	0.05929	-1.1236	-0.0543	5.8714	-0.95457	767.085	-61.5245	270.7326	68.8769	833.902	-0.0592	0.0182	-0.0073	-0.0462	0.0165	0.9585
58.2434	-0.90622	2.7511	0.23885	-0.77766	-0.38585	4.4241	2.7739	777.5936	-59.8737	275.1077	65.5057	838.1245	-0.0592	0.0182	-0.0073	-0.0462	0.0165	0.9585
58.2546	-1.0815	1.2828	0.45074	-0.26459	-0.74726	2.4101	6.5054	786.4231	-58.2251	278.8066	62.0875	840.6723	-0.0592	0.0182	-0.0073	-0.0462	0.0165	0.9585
58.2658	-1.2513	-0.65974	0.65639	0.42631	-1.0876	-0.187	10.2372	792.6086	-56.8242	281.4308	58.8627	840.6521	-0.0592	0.0182	-0.0073	-0.0462	0.0165	0.9585
58.277	-1.3146	-3.0408	0.81784	1.2771	-1.3246	-3.3105	13.9716	795.3612	-55.8637	282.6625	56.023	837.3283	-0.0592	0.0182	-0.0073	-0.0462	0.0165	0.9585
58.2882	-1.1467	-5.6597	0.84944	2.2077	-1.3059	-6.7057	17.7079	794.3301	-55.4559	282.3588	53.6902	830.3894	-0.0592	0.0182	-0.0073	-0.0462	0.0165	0.9585
58.2994	-0.58006	-8.0753	0.65814	3.0495	-0.84589	-9.8254	21.3885	789.6297	-55.655	280.5692	51.944	819.9831	-0.0592	0.0182	-0.0073	-0.0462	0.0165	0.9585
58.3106	0.61029	-9.5135	0.10863	3.5092	0.30495	-11.6962	24.9519	781.8212	-56.408	277.5207	50.7699	806.7006	-0.0592	0.0182	-0.0073	-0.0462	0.0165	0.9585
58.3219	2.6257	-8.7692	-0.9406	3.138	2.407	-10.8236	28.2639	771.6927	-57.6721	273.5319	50.1845	791.3647	-0.0592	0.0182	-0.0073	-0.0462	0.0165	0.9585
58.3331	5.6739	-4.195	-2.6449	1.3239	5.7281	-5.1423	31.2131	760.0278	-59.3032	268.9312	50.1022	774.7841	-0.0592	0.0182	-0.0073	-0.0462	0.0165	0.9585
58.3443	9.8184	6.2855	-5.1114	-2.6934	10.4268	7.9657	33.6809	747.4325	-61.1513	263.9824	50.4252	757.5981	-0.0592	0.0182	-0.0073	-0.0462	0.0165	0.9585
58.3555	14.9171	24.9442	-8.3525	-9.7434	16.4544	31.3521	35.6202	734.1189	-62.9831	258.8139	50.9527	740.0206	-0.0592	0.0182	-0.0073	-0.0462	0.0165	0.9585
58.3667	20.4328	53.8911	-12.1789	-20.5849	23.3608	67.7166	37.0033	719.9035	-64.5154	253.4031	51.4266	721.8963	-0.0592	0.0182	-0.0073	-0.0462	0.0165	0.9585
58.3779	25.2906	94.3486	-16.0883	-35.6353	30.0922	118.6208	37.8664	704.1992	-65.4282	247.5794	51.5373	702.6577	-0.0592	0.0182	-0.0073	-0.0462	0.0165	0.9585
58.3891	27.6443	145.6796	-19.1095	-54.5988	34.7326	183.3347	38.2284	686.2002	-65.3911	241.0786	50.9669	681.5334	-0.0592	0.0182	-0.0073	-0.0462	0.0165	0.9585
58.4004	25.4376	204.6561	-19.8633	-76.2007	34.8041	257.8687	38.1237	665.0194	-64.1441	233.5961	49.4642	657.6658	-0.0592	0.0182	-0.0073	-0.0462	0.0165	0.9585
58.4116	18.0092	265.7434	-16.8183	-98.3034	28.154	335.2828	37.5275	639.9255	-61.5161	224.8663	46.8861	630.3875	-0.0592	0.0182	-0.0073	-0.0462	0.0165	0.9585
58.4228	7.3378	322.7007	-8.9932	-118.5919	14.4086	407.497	36.4456	610.4199	-57.5244	214.6941	43.2631	599.2325	-0.0592	0.0182	-0.0073	-0.0462	0.0165	0.9585
58.434	-4.1961	371.1895	2.2954	-135.5737	-3.9145	468.5962	34.9157	576.287	-52.3613	202.9672	38.7691	564.0017	-0.0592	0.0182	-0.0073	-0.0462	0.0165	0.9585
58.4452	-14.892	410.4189	15.1409	-149.0734	-23.7212	517.2558	33.0856	537.4972	-46.4097	189.6317	33.7067	524.6424	-0.0592	0.0182	-0.0073	-0.0462	0.0165	0.9585
58.4564	-23.9623	442.3683	27.5842	-159.9471	-42.3095	555.8398	31.1099	494.3823	-40.091	174.7599	28.4048	481.4479	-0.0592	0.0182	-0.0073	-0.0462	0.0165	0.9585
58.4676	-30.9493	469.9344	38.3202	-169.3514	-57.8983	587.9613	29.0799	447.6053	-33.792	158.5528	23.1747	435.0205	-0.0592	0.0182	-0.0073	-0.0462	0.0165	0.9585
58.4789	-35.7849	495.1936	46.4459	-178.1255	-69.3897	616.377	26.9693	398.1272	-27.7785	141.3296	18.2526	386.2687	-0.0592	0.0182	-0.0073	-0.0462	0.0165	0.9585
58.4901	-38.4728	519.0905	51.6664	-186.6515	-76.4685	642.2543	24.6637	347.1536	-22.1829	123.5087	13.7814	336.3312	-0.0592	0.0182	-0.0073	-0.0462	0.0165	0.9585
58.5013	-39.0974	541.8718	54.3926	-194.9872	-79.6856	666.0449	22.0328	296.0738	-17.1193	105.5809	9.8994	286.5259	-0.0592	0.0182	-0.0073	-0.0462	0.0165	0.9585
58.5125	-37.8129	563.5297	55.2603	-203.0717	-79.9253	687.8071	18.979	246.4522	-12.688	88.0998	6.7274	238.3321	-0.0592	0.0182	-0.0073	-0.0462	0.0165	0.9585
58.5237	-34.9911	584.2355	55.1956	-210.871	-78.4309	707.9228	15.5189	199.8417	-9.036	71.6174	4.3947	193.2165	-0.0592	0.0182	-0.0073	-0.0462	0.0165	0.9585
58.5349	-30.9669	604.1761	54.8447	-218.3797	-76.1471	726.7647	11.8185	157.6445	-6.2506	56.634	2.9283	152.495	-0.0592	0.0182	-0.0073	-0.0462	0.0165	0.9585
58.5461	-26.3769	623.4965	54.8578	-225.5691	-74.0605	744.6462	8.1887	120.8594	-4.3261	43.5127	2.2213	117.0673	-0.0592	0.0182	-0.0073	-0.0462	0.0165	0.9585
58.5574	-21.7112	642.0174	55.6351	-232.3308	-72.8218	761.4711	4.9418	89.9033	-3.1091	32.4228	2.0291	87.288	-0.0592	0.0182	-0.0073	-0.0462	0.0165	0.9585
58.5686	-17.4385	659.7317	57.2635	-238.628	-72.6994	777.3255	2.3137	64.6726	-2.3763	23.3509	2.0774	63.019	-0.0592	0.0182	-0.0073	-0.0462	0.0165	0.9585
58.5798	-13.8004	676.7641	59.6696	-244.5023	-73.684	792.3737	0.33811	44.7041	-1.9186	16.1556	2.1699	43.8155	-0.0592	0.0182	-0.0073	-0.0462	0.0165	0.9585
58.591	-10.8659	693.3782	62.4619	-250.0634	-75.3696	806.9831	-1.0099	29.3779	-1.5766	10.6305	2.1764	29.0781	-0.0592	0.0182	-0.0073	-0.0462	0.0165	0.9585
58.6022	-8.5896	709.684	65.3671	-255.3747	-77.4223	821.2703	-1.8094	18.0522	-1.2599	6.5496	2.0458	18.2095	-0.0592	0.0182	-0.0073	-0.0462	0.0165	0.9585
58.6134	-6.9257	725.4941	68.0815	-260.3996	-79.4851	835.0488	-2.1051	10.0972	-0.9264	3.6884	1.7555	10.5857	-0.0592	0.0182	-0.0073	-0.0462	0.0165	0.9585
58.6246	-5.6921	740.3953	70.5496	-265.0046	-81.4301	847.8399	-2.014	4.9642	-0.60479	1.8426	1.3706	5.6833	-0.0592	0.0182	-0.0073	-0.0462	0.0165	0.9585
58.6359	-4.8125	753.765	72.8022	-268.9841	-83.2444	858.946	-1.703	2.0396	-0.32513	0.79279	0.9733	2.8955	-0.0592	0.0182	-0.0073	-0.0462	0.0165	0.9585
58.6471	-4.068	765.055	74.8537	-272.1562	-84.868	867.7451	-1.3269	0.7421	-0.11704	0.32511	0.63674	1.6791	-0.0592	0.0182	-0.0073	-0.0462	0.0165	0.9585
58.6583	-3.3624	773.8275	76.6932	-274.3865	-86.2432	873.7634	-0.95743	0.47963	0.034913	0.23226	0.36607	1.4414	-0.0592	0.0182	-0.0073	-0.0462	0.0165	0.9585
58.6695	-2.6092	779.894	78.1488	-275.6385	-87.1644	876.7803	-0.66222	0.82708	0.1225	0.3583	0.18576	1.8001	-0.0592	0.0182	-0.0073	-0.0462	0.0165	0.9585
58.6807	-1.7535	783.3075	79.1217	-275.9533	-87.5085	876.9146	-0.42341	1.4289	0.16637	0.58112	0.068671	2.3901	-0.0592	0.0182	-0.0073	-0.0462	0.0165	0.9585
58.6919	-0.81739	784.1862	79.5131	-275.3982	-87.1773	874.313	-0.27834	2.091	0.17076	0.82993	0.015657	3.0376	-0.0592	0.0182	-0.0073	-0.0462	0.0165	0.9585
58.7031	0.18471	782.7025	79.3655	-274.0467	-86.2247	869.2034	-0.17076	2.6909	0.14636	1.0619	0.0030978	3.6057	-0.0592	0.0182	-0.0073	-0.0462	0.0165	0.9585
58.7144	1.2201	779.0125	78.7893	-271.9628	-84.7815	861.7874	-0.13615	3.1869	0.10574	1.2598	0.026415	4.0872	-0.0592	0.0182	-0.0073	-0.0462	0.0165	0.9585
58.7256	2.2725	773.4156	77.9005	-269.258	-82.9884	852.3611	-0.11314	3.5743	0.053639	1.4202	0.065609	4.4638	-0.0592	0.0182	-0.0073	-0.0462	0.0165	0.9585
58.7368	3.3612	766.3544	76.8304	-266.0966	-80.9825	841.3949	-0.14047	3.8879	0.0083132	1.5517	0.11012	4.7964	-0.0592	0.0182	-0.0073	-0.0462	0.0165	0.9585
58.748	4.5147	758.421	75.6334	-262.6935	-78.8279	829.481	-0.16961	4.1424	-0.038872	1.6601	0.15866	5.0737	-0.0592	0.0182	-0.0073	-0.0462	0.0165	0.9585
58.7592	5.7468	750.2484	74.4276	-259.2725	-76.6441	817.2783	-0.22947	4.3597	-0.083586	1.7499	0.21696	5.3386	-0.0592	0.0182	-0.0073	-0.0462	0.0165	0.9585
58.7704	7.1161	742.4447	73.2545	-256.0447	-74.4683	805.4231	-0.28709	4.4998	-0.12751	1.8081	0.28175	5.5328	-0.0592	0.0182	-0.0073	-0.0462	0.0165	0.9585
58.7816	8.6095	735.5251	72.2084	-253.1805	-72.3942	794.4434	-0.36996	4.5411	-0.16903	1.8204	0.35711	5.6338	-0.0592	0.0182	-0.0073	-0.0462	0.0165	0.9585
58.7929	10.2602	729.8625	71.3107	-250.8013	-70.4338	784.7233	-0.44619	4.3661	-0.20734	1.7449	0.43367	5.4695	-0.0592	0.0182	-0.0073	-0.0462	0.0165	0.9585
58.8041	12.0731	725.6861	70.5962	-248.9734	-68.6164	776.4767	-0.53266	3.8802	-0.24454	1.5419	0.51437	4.9092	-0.0592	0.0182	-0.0073	-0.0462	0.0165	0.9585
58.8153	14.0627	723.0447	70.07	-247.7052	-66.9402	769.7184	-0.58645	2.9245	-0.2905	1.1529	0.59568	3.7352	-0.0592	0.0182	-0.0073	-0.0462	0.0165	0.9585
58.8265	16.3052	721.8937	69.7326	-246.9696	-65.3836	764.3701	-0.61331	1.3684	-0.33162	0.52608	0.65995	1.7915	-0.0592	0.0182	-0.0073	-0.0462	0.0165	0.9585
58.8377	18.8307	722.0796	69.5927	-246.7061	-63.9385	760.2503	-0.55481	-0.91238	-0.36911	-0.38556	0.68291	-1.0905	-0.0592	0.0182	-0.0073	-0.0462	0.0165	0.9585
58.8489	21.7474	723.4096	69.6449	-246.8367	-62.5625	757.1407	-0.38686	-3.9386	-0.37357	-1.5882	0.61655	-4.9228	-0.0592	0.0182	-0.0073	-0.0462	0.0165	0.9585
58.8601	25.1064	725.5919	69.9172	-247.245	-61.2563	754.754	-0.03015	-7.5677	-0.33238	-3.0204	0.41315	-9.5258	-0.0592	0.0182	-0.0073	-0.0462	0.0165	0.9585
58.8714	28.9549	728.1967	70.4176	-247.7633	-60.0101	752.6586	0.55863	-11.3326	-0.2037	-4.4968	0.0049036	-14.3057	-0.0592	0.0182	-0.0073	-0.0462	0.0165	0.9585
58.8826	33.2579	730.6494	71.1604	-248.167	-58.8408	750.3475	1.4379	-14.3632	0.058409	-5.6686	-0.68686	-18.1732	-0.0592	0.0182	-0.0073	-0.0462	0.0165	0.9585
58.8938	37.9225	732.24	72.1238	-248.187	-57.7638	747.1707	2.6165	-15.1868	0.50602	-5.9572	-1.7264	-19.2725	-0.0592	0.0182	-0.0073	-0.0462	0.0165	0.9585
58.905	42.7413	732.1955	73.2516	-247.5404	-56.7969	742.4807	4.0493	-11.7003	1.1998	-4.5335	-3.158	-14.964	-0.0592	0.0182	-0.0073	-0.0462	0.0165	0.9585
